<mxfile host="app.diagrams.net" modified="2023-05-22T09:05:27.640Z" agent="Mozilla/5.0 (Windows NT 10.0; Win64; x64) AppleWebKit/537.36 (KHTML, like Gecko) Chrome/113.0.0.0 Safari/537.36" etag="Ys1VmlQdQelJD9aIIRIp" version="21.2.9" type="github">
  <diagram id="C5RBs43oDa-KdzZeNtuy" name="Page-1">
    <mxGraphModel dx="620" dy="615" grid="1" gridSize="10" guides="1" tooltips="1" connect="1" arrows="1" fold="1" page="1" pageScale="1" pageWidth="827" pageHeight="1169" math="0" shadow="0">
      <root>
        <mxCell id="WIyWlLk6GJQsqaUBKTNV-0" />
        <mxCell id="WIyWlLk6GJQsqaUBKTNV-1" parent="WIyWlLk6GJQsqaUBKTNV-0" />
        <mxCell id="R6v5QdrumkMnJ_XkAs3M-0" value="&amp;lt;&amp;lt;control&amp;gt;&amp;gt;&lt;br style=&quot;border-color: var(--border-color);&quot;&gt;Control :: showApplyInfo" style="swimlane;fontStyle=1;align=center;verticalAlign=middle;childLayout=stackLayout;horizontal=1;startSize=29;horizontalStack=0;resizeParent=1;resizeParentMax=0;resizeLast=0;collapsible=0;marginBottom=0;html=1;whiteSpace=wrap;" vertex="1" parent="WIyWlLk6GJQsqaUBKTNV-1">
          <mxGeometry x="380" y="450" width="190" height="110" as="geometry" />
        </mxCell>
        <mxCell id="R6v5QdrumkMnJ_XkAs3M-1" value="" style="endArrow=none;html=1;rounded=0;" edge="1" parent="R6v5QdrumkMnJ_XkAs3M-0">
          <mxGeometry width="50" height="50" relative="1" as="geometry">
            <mxPoint y="39" as="sourcePoint" />
            <mxPoint x="190" y="40" as="targetPoint" />
          </mxGeometry>
        </mxCell>
        <mxCell id="R6v5QdrumkMnJ_XkAs3M-2" value="showApplyInfo()" style="text;html=1;strokeColor=none;fillColor=none;align=center;verticalAlign=middle;whiteSpace=wrap;rounded=0;" vertex="1" parent="R6v5QdrumkMnJ_XkAs3M-0">
          <mxGeometry y="29" width="190" height="81" as="geometry" />
        </mxCell>
        <mxCell id="R6v5QdrumkMnJ_XkAs3M-3" value="&amp;lt;&amp;lt;boundary&amp;gt;&amp;gt;&lt;br&gt;User Interface ::&amp;nbsp;&lt;b style=&quot;border-color: var(--border-color);&quot;&gt;showApplyInfo&lt;/b&gt;UI&amp;nbsp;" style="swimlane;fontStyle=1;align=center;verticalAlign=middle;childLayout=stackLayout;horizontal=1;startSize=40;horizontalStack=0;resizeParent=1;resizeParentMax=0;resizeLast=0;collapsible=0;marginBottom=0;html=1;whiteSpace=wrap;" vertex="1" parent="WIyWlLk6GJQsqaUBKTNV-1">
          <mxGeometry x="380" y="320" width="190" height="110" as="geometry" />
        </mxCell>
        <mxCell id="R6v5QdrumkMnJ_XkAs3M-4" value="" style="endArrow=none;html=1;rounded=0;" edge="1" parent="R6v5QdrumkMnJ_XkAs3M-3">
          <mxGeometry width="50" height="50" relative="1" as="geometry">
            <mxPoint y="50" as="sourcePoint" />
            <mxPoint x="190" y="50" as="targetPoint" />
          </mxGeometry>
        </mxCell>
        <mxCell id="R6v5QdrumkMnJ_XkAs3M-5" value="&lt;h1&gt;&lt;br&gt;&lt;/h1&gt;" style="text;html=1;strokeColor=none;fillColor=none;spacing=5;spacingTop=-20;whiteSpace=wrap;overflow=hidden;rounded=0;" vertex="1" parent="R6v5QdrumkMnJ_XkAs3M-3">
          <mxGeometry y="40" width="190" height="10" as="geometry" />
        </mxCell>
        <mxCell id="R6v5QdrumkMnJ_XkAs3M-6" style="edgeStyle=orthogonalEdgeStyle;rounded=0;orthogonalLoop=1;jettySize=auto;html=1;exitX=0.5;exitY=1;exitDx=0;exitDy=0;" edge="1" parent="R6v5QdrumkMnJ_XkAs3M-3" source="R6v5QdrumkMnJ_XkAs3M-5" target="R6v5QdrumkMnJ_XkAs3M-5">
          <mxGeometry relative="1" as="geometry" />
        </mxCell>
        <mxCell id="R6v5QdrumkMnJ_XkAs3M-7" value="startInterface()&lt;br&gt;showApplyInfo()&lt;br&gt;" style="text;html=1;strokeColor=none;fillColor=none;align=center;verticalAlign=middle;whiteSpace=wrap;rounded=0;" vertex="1" parent="R6v5QdrumkMnJ_XkAs3M-3">
          <mxGeometry y="50" width="190" height="60" as="geometry" />
        </mxCell>
        <mxCell id="R6v5QdrumkMnJ_XkAs3M-8" value="&amp;lt;&amp;lt;boundary&amp;gt;&amp;gt;&lt;br&gt;User Interface :: cancelApplyInfoUI" style="swimlane;fontStyle=1;align=center;verticalAlign=middle;childLayout=stackLayout;horizontal=1;startSize=40;horizontalStack=0;resizeParent=1;resizeParentMax=0;resizeLast=0;collapsible=0;marginBottom=0;html=1;whiteSpace=wrap;" vertex="1" parent="WIyWlLk6GJQsqaUBKTNV-1">
          <mxGeometry x="581" y="320" width="190" height="110" as="geometry" />
        </mxCell>
        <mxCell id="R6v5QdrumkMnJ_XkAs3M-9" value="" style="endArrow=none;html=1;rounded=0;" edge="1" parent="R6v5QdrumkMnJ_XkAs3M-8">
          <mxGeometry width="50" height="50" relative="1" as="geometry">
            <mxPoint y="50" as="sourcePoint" />
            <mxPoint x="190" y="50" as="targetPoint" />
          </mxGeometry>
        </mxCell>
        <mxCell id="R6v5QdrumkMnJ_XkAs3M-10" value="&lt;h1&gt;&lt;br&gt;&lt;/h1&gt;" style="text;html=1;strokeColor=none;fillColor=none;spacing=5;spacingTop=-20;whiteSpace=wrap;overflow=hidden;rounded=0;" vertex="1" parent="R6v5QdrumkMnJ_XkAs3M-8">
          <mxGeometry y="40" width="190" height="10" as="geometry" />
        </mxCell>
        <mxCell id="R6v5QdrumkMnJ_XkAs3M-11" style="edgeStyle=orthogonalEdgeStyle;rounded=0;orthogonalLoop=1;jettySize=auto;html=1;exitX=0.5;exitY=1;exitDx=0;exitDy=0;" edge="1" parent="R6v5QdrumkMnJ_XkAs3M-8" source="R6v5QdrumkMnJ_XkAs3M-10" target="R6v5QdrumkMnJ_XkAs3M-10">
          <mxGeometry relative="1" as="geometry" />
        </mxCell>
        <mxCell id="R6v5QdrumkMnJ_XkAs3M-12" value="startInterface()&lt;br&gt;caneclApplyInfo()" style="text;html=1;strokeColor=none;fillColor=none;align=center;verticalAlign=middle;whiteSpace=wrap;rounded=0;" vertex="1" parent="R6v5QdrumkMnJ_XkAs3M-8">
          <mxGeometry y="50" width="190" height="60" as="geometry" />
        </mxCell>
        <mxCell id="R6v5QdrumkMnJ_XkAs3M-13" value="&amp;lt;&amp;lt;control&amp;gt;&amp;gt;&lt;br&gt;Control :: cancelApplyInfo" style="swimlane;fontStyle=1;align=center;verticalAlign=middle;childLayout=stackLayout;horizontal=1;startSize=29;horizontalStack=0;resizeParent=1;resizeParentMax=0;resizeLast=0;collapsible=0;marginBottom=0;html=1;whiteSpace=wrap;" vertex="1" parent="WIyWlLk6GJQsqaUBKTNV-1">
          <mxGeometry x="580" y="450" width="190" height="110" as="geometry" />
        </mxCell>
        <mxCell id="R6v5QdrumkMnJ_XkAs3M-14" value="" style="endArrow=none;html=1;rounded=0;" edge="1" parent="R6v5QdrumkMnJ_XkAs3M-13">
          <mxGeometry width="50" height="50" relative="1" as="geometry">
            <mxPoint y="39" as="sourcePoint" />
            <mxPoint x="190" y="40" as="targetPoint" />
          </mxGeometry>
        </mxCell>
        <mxCell id="R6v5QdrumkMnJ_XkAs3M-15" value="cancelApplyInfo()" style="text;html=1;strokeColor=none;fillColor=none;align=center;verticalAlign=middle;whiteSpace=wrap;rounded=0;" vertex="1" parent="R6v5QdrumkMnJ_XkAs3M-13">
          <mxGeometry y="29" width="190" height="81" as="geometry" />
        </mxCell>
        <mxCell id="R6v5QdrumkMnJ_XkAs3M-24" value="&amp;lt;&amp;lt;boundary&amp;gt;&amp;gt;&lt;br&gt;User Interface ::&amp;nbsp;&lt;br&gt;getApplyCountUI" style="swimlane;fontStyle=1;align=center;verticalAlign=middle;childLayout=stackLayout;horizontal=1;startSize=40;horizontalStack=0;resizeParent=1;resizeParentMax=0;resizeLast=0;collapsible=0;marginBottom=0;html=1;whiteSpace=wrap;" vertex="1" parent="WIyWlLk6GJQsqaUBKTNV-1">
          <mxGeometry x="780" y="320" width="190" height="110" as="geometry" />
        </mxCell>
        <mxCell id="R6v5QdrumkMnJ_XkAs3M-25" value="" style="endArrow=none;html=1;rounded=0;" edge="1" parent="R6v5QdrumkMnJ_XkAs3M-24">
          <mxGeometry width="50" height="50" relative="1" as="geometry">
            <mxPoint y="50" as="sourcePoint" />
            <mxPoint x="190" y="50" as="targetPoint" />
          </mxGeometry>
        </mxCell>
        <mxCell id="R6v5QdrumkMnJ_XkAs3M-26" value="&lt;h1&gt;&lt;br&gt;&lt;/h1&gt;" style="text;html=1;strokeColor=none;fillColor=none;spacing=5;spacingTop=-20;whiteSpace=wrap;overflow=hidden;rounded=0;" vertex="1" parent="R6v5QdrumkMnJ_XkAs3M-24">
          <mxGeometry y="40" width="190" height="10" as="geometry" />
        </mxCell>
        <mxCell id="R6v5QdrumkMnJ_XkAs3M-27" style="edgeStyle=orthogonalEdgeStyle;rounded=0;orthogonalLoop=1;jettySize=auto;html=1;exitX=0.5;exitY=1;exitDx=0;exitDy=0;" edge="1" parent="R6v5QdrumkMnJ_XkAs3M-24" source="R6v5QdrumkMnJ_XkAs3M-26" target="R6v5QdrumkMnJ_XkAs3M-26">
          <mxGeometry relative="1" as="geometry" />
        </mxCell>
        <mxCell id="R6v5QdrumkMnJ_XkAs3M-28" value="startInterface()&lt;br&gt;getApplyCount()" style="text;html=1;strokeColor=none;fillColor=none;align=center;verticalAlign=middle;whiteSpace=wrap;rounded=0;" vertex="1" parent="R6v5QdrumkMnJ_XkAs3M-24">
          <mxGeometry y="50" width="190" height="60" as="geometry" />
        </mxCell>
        <mxCell id="R6v5QdrumkMnJ_XkAs3M-29" value="&amp;lt;&amp;lt;control&amp;gt;&amp;gt;&lt;br&gt;Control ::&amp;nbsp;&lt;b style=&quot;border-color: var(--border-color);&quot;&gt;getApplyCount&lt;/b&gt;" style="swimlane;fontStyle=1;align=center;verticalAlign=middle;childLayout=stackLayout;horizontal=1;startSize=29;horizontalStack=0;resizeParent=1;resizeParentMax=0;resizeLast=0;collapsible=0;marginBottom=0;html=1;whiteSpace=wrap;" vertex="1" parent="WIyWlLk6GJQsqaUBKTNV-1">
          <mxGeometry x="780" y="450" width="190" height="110" as="geometry" />
        </mxCell>
        <mxCell id="R6v5QdrumkMnJ_XkAs3M-30" value="" style="endArrow=none;html=1;rounded=0;" edge="1" parent="R6v5QdrumkMnJ_XkAs3M-29">
          <mxGeometry width="50" height="50" relative="1" as="geometry">
            <mxPoint y="39" as="sourcePoint" />
            <mxPoint x="190" y="40" as="targetPoint" />
          </mxGeometry>
        </mxCell>
        <mxCell id="R6v5QdrumkMnJ_XkAs3M-31" value="getApplyCount()" style="text;html=1;strokeColor=none;fillColor=none;align=center;verticalAlign=middle;whiteSpace=wrap;rounded=0;" vertex="1" parent="R6v5QdrumkMnJ_XkAs3M-29">
          <mxGeometry y="29" width="190" height="81" as="geometry" />
        </mxCell>
        <mxCell id="R6v5QdrumkMnJ_XkAs3M-32" value="&amp;lt;&amp;lt;boundary&amp;gt;&amp;gt;&lt;br&gt;User Interface ::&amp;nbsp;&lt;br&gt;&lt;b style=&quot;border-color: var(--border-color);&quot;&gt;getApplyStatusUI&lt;/b&gt;" style="swimlane;fontStyle=1;align=center;verticalAlign=middle;childLayout=stackLayout;horizontal=1;startSize=40;horizontalStack=0;resizeParent=1;resizeParentMax=0;resizeLast=0;collapsible=0;marginBottom=0;html=1;whiteSpace=wrap;" vertex="1" parent="WIyWlLk6GJQsqaUBKTNV-1">
          <mxGeometry x="983" y="320" width="190" height="110" as="geometry" />
        </mxCell>
        <mxCell id="R6v5QdrumkMnJ_XkAs3M-33" value="" style="endArrow=none;html=1;rounded=0;" edge="1" parent="R6v5QdrumkMnJ_XkAs3M-32">
          <mxGeometry width="50" height="50" relative="1" as="geometry">
            <mxPoint y="50" as="sourcePoint" />
            <mxPoint x="190" y="50" as="targetPoint" />
          </mxGeometry>
        </mxCell>
        <mxCell id="R6v5QdrumkMnJ_XkAs3M-34" value="&lt;h1&gt;&lt;br&gt;&lt;/h1&gt;" style="text;html=1;strokeColor=none;fillColor=none;spacing=5;spacingTop=-20;whiteSpace=wrap;overflow=hidden;rounded=0;" vertex="1" parent="R6v5QdrumkMnJ_XkAs3M-32">
          <mxGeometry y="40" width="190" height="10" as="geometry" />
        </mxCell>
        <mxCell id="R6v5QdrumkMnJ_XkAs3M-35" style="edgeStyle=orthogonalEdgeStyle;rounded=0;orthogonalLoop=1;jettySize=auto;html=1;exitX=0.5;exitY=1;exitDx=0;exitDy=0;" edge="1" parent="R6v5QdrumkMnJ_XkAs3M-32" source="R6v5QdrumkMnJ_XkAs3M-34" target="R6v5QdrumkMnJ_XkAs3M-34">
          <mxGeometry relative="1" as="geometry" />
        </mxCell>
        <mxCell id="R6v5QdrumkMnJ_XkAs3M-36" value="startInterface()&lt;br&gt;getRecruitStatus()" style="text;html=1;strokeColor=none;fillColor=none;align=center;verticalAlign=middle;whiteSpace=wrap;rounded=0;" vertex="1" parent="R6v5QdrumkMnJ_XkAs3M-32">
          <mxGeometry y="50" width="190" height="60" as="geometry" />
        </mxCell>
        <mxCell id="R6v5QdrumkMnJ_XkAs3M-37" value="&amp;lt;&amp;lt;control&amp;gt;&amp;gt;&lt;br&gt;Control ::&amp;nbsp;&lt;b style=&quot;border-color: var(--border-color);&quot;&gt;getApplyStatus&lt;/b&gt;" style="swimlane;fontStyle=1;align=center;verticalAlign=middle;childLayout=stackLayout;horizontal=1;startSize=29;horizontalStack=0;resizeParent=1;resizeParentMax=0;resizeLast=0;collapsible=0;marginBottom=0;html=1;whiteSpace=wrap;" vertex="1" parent="WIyWlLk6GJQsqaUBKTNV-1">
          <mxGeometry x="983" y="451" width="190" height="110" as="geometry" />
        </mxCell>
        <mxCell id="R6v5QdrumkMnJ_XkAs3M-38" value="" style="endArrow=none;html=1;rounded=0;" edge="1" parent="R6v5QdrumkMnJ_XkAs3M-37">
          <mxGeometry width="50" height="50" relative="1" as="geometry">
            <mxPoint y="39" as="sourcePoint" />
            <mxPoint x="190" y="40" as="targetPoint" />
          </mxGeometry>
        </mxCell>
        <mxCell id="R6v5QdrumkMnJ_XkAs3M-39" value="getRecruitStatus()" style="text;html=1;strokeColor=none;fillColor=none;align=center;verticalAlign=middle;whiteSpace=wrap;rounded=0;" vertex="1" parent="R6v5QdrumkMnJ_XkAs3M-37">
          <mxGeometry y="29" width="190" height="81" as="geometry" />
        </mxCell>
        <mxCell id="R6v5QdrumkMnJ_XkAs3M-40" value="&amp;lt;&amp;lt;entity&amp;gt;&amp;gt;&lt;br&gt;&lt;b&gt;Member&lt;/b&gt;" style="swimlane;fontStyle=0;align=center;verticalAlign=top;childLayout=stackLayout;horizontal=1;startSize=40;horizontalStack=0;resizeParent=1;resizeParentMax=0;resizeLast=0;collapsible=0;marginBottom=0;html=1;whiteSpace=wrap;" vertex="1" parent="WIyWlLk6GJQsqaUBKTNV-1">
          <mxGeometry x="690" y="600" width="160" height="48" as="geometry" />
        </mxCell>
        <mxCell id="R6v5QdrumkMnJ_XkAs3M-41" value="" style="line;strokeWidth=1;fillColor=none;align=left;verticalAlign=middle;spacingTop=-1;spacingLeft=3;spacingRight=3;rotatable=0;labelPosition=right;points=[];portConstraint=eastwest;" vertex="1" parent="R6v5QdrumkMnJ_XkAs3M-40">
          <mxGeometry y="40" width="160" height="8" as="geometry" />
        </mxCell>
        <mxCell id="R6v5QdrumkMnJ_XkAs3M-42" value="&amp;lt;&amp;lt;entity&amp;gt;&amp;gt;&lt;br&gt;&lt;b&gt;GenMember&lt;/b&gt;" style="swimlane;fontStyle=0;align=center;verticalAlign=top;childLayout=stackLayout;horizontal=1;startSize=40;horizontalStack=0;resizeParent=1;resizeParentMax=0;resizeLast=0;collapsible=0;marginBottom=0;html=1;whiteSpace=wrap;" vertex="1" parent="WIyWlLk6GJQsqaUBKTNV-1">
          <mxGeometry x="580" y="840.0000000000002" width="160" height="130" as="geometry" />
        </mxCell>
        <mxCell id="R6v5QdrumkMnJ_XkAs3M-43" value="" style="line;strokeWidth=1;fillColor=none;align=left;verticalAlign=middle;spacingTop=-1;spacingLeft=3;spacingRight=3;rotatable=0;labelPosition=right;points=[];portConstraint=eastwest;" vertex="1" parent="R6v5QdrumkMnJ_XkAs3M-42">
          <mxGeometry y="40" width="160" height="8" as="geometry" />
        </mxCell>
        <mxCell id="R6v5QdrumkMnJ_XkAs3M-44" value="showApplyInfo()&lt;br&gt;cancelApplyInfo()&lt;br&gt;getDepartApplyCount()" style="text;html=1;strokeColor=none;fillColor=none;align=left;verticalAlign=middle;spacingLeft=4;spacingRight=4;overflow=hidden;rotatable=0;points=[[0,0.5],[1,0.5]];portConstraint=eastwest;whiteSpace=wrap;" vertex="1" parent="R6v5QdrumkMnJ_XkAs3M-42">
          <mxGeometry y="48" width="160" height="82" as="geometry" />
        </mxCell>
        <mxCell id="R6v5QdrumkMnJ_XkAs3M-45" value="&amp;lt;&amp;lt;entity&amp;gt;&amp;gt;&lt;br&gt;&lt;b&gt;CompMember&lt;/b&gt;" style="swimlane;fontStyle=0;align=center;verticalAlign=top;childLayout=stackLayout;horizontal=1;startSize=40;horizontalStack=0;resizeParent=1;resizeParentMax=0;resizeLast=0;collapsible=0;marginBottom=0;html=1;whiteSpace=wrap;" vertex="1" parent="WIyWlLk6GJQsqaUBKTNV-1">
          <mxGeometry x="780" y="840.0000000000002" width="160" height="100" as="geometry" />
        </mxCell>
        <mxCell id="R6v5QdrumkMnJ_XkAs3M-46" value="" style="line;strokeWidth=1;fillColor=none;align=left;verticalAlign=middle;spacingTop=-1;spacingLeft=3;spacingRight=3;rotatable=0;labelPosition=right;points=[];portConstraint=eastwest;" vertex="1" parent="R6v5QdrumkMnJ_XkAs3M-45">
          <mxGeometry y="40" width="160" height="8" as="geometry" />
        </mxCell>
        <mxCell id="R6v5QdrumkMnJ_XkAs3M-47" value="getRecruitDepartInfo()" style="text;html=1;strokeColor=none;fillColor=none;align=left;verticalAlign=middle;spacingLeft=4;spacingRight=4;overflow=hidden;rotatable=0;points=[[0,0.5],[1,0.5]];portConstraint=eastwest;whiteSpace=wrap;" vertex="1" parent="R6v5QdrumkMnJ_XkAs3M-45">
          <mxGeometry y="48" width="160" height="52" as="geometry" />
        </mxCell>
        <mxCell id="R6v5QdrumkMnJ_XkAs3M-48" value="" style="endArrow=block;endSize=16;endFill=0;html=1;rounded=0;exitX=0.5;exitY=0;exitDx=0;exitDy=0;entryX=0.372;entryY=0.976;entryDx=0;entryDy=0;entryPerimeter=0;" edge="1" parent="WIyWlLk6GJQsqaUBKTNV-1" source="R6v5QdrumkMnJ_XkAs3M-42">
          <mxGeometry width="160" relative="1" as="geometry">
            <mxPoint x="740" y="830.0000000000002" as="sourcePoint" />
            <mxPoint x="739.52" y="658.5120000000002" as="targetPoint" />
          </mxGeometry>
        </mxCell>
        <mxCell id="R6v5QdrumkMnJ_XkAs3M-49" value="" style="endArrow=block;endSize=16;endFill=0;html=1;rounded=0;exitX=0.5;exitY=0;exitDx=0;exitDy=0;entryX=0.625;entryY=1;entryDx=0;entryDy=0;entryPerimeter=0;" edge="1" parent="WIyWlLk6GJQsqaUBKTNV-1" source="R6v5QdrumkMnJ_XkAs3M-45">
          <mxGeometry width="160" relative="1" as="geometry">
            <mxPoint x="880" y="700" as="sourcePoint" />
            <mxPoint x="780" y="660" as="targetPoint" />
            <Array as="points" />
          </mxGeometry>
        </mxCell>
        <mxCell id="R6v5QdrumkMnJ_XkAs3M-50" value="&amp;lt;&amp;lt;entity&amp;gt;&amp;gt;&lt;br&gt;&lt;b&gt;RecruitInfo&lt;/b&gt;" style="swimlane;fontStyle=0;align=center;verticalAlign=top;childLayout=stackLayout;horizontal=1;startSize=40;horizontalStack=0;resizeParent=1;resizeParentMax=0;resizeLast=0;collapsible=0;marginBottom=0;html=1;whiteSpace=wrap;" vertex="1" parent="WIyWlLk6GJQsqaUBKTNV-1">
          <mxGeometry x="770" y="1130.0000000000002" width="160" height="160" as="geometry" />
        </mxCell>
        <mxCell id="R6v5QdrumkMnJ_XkAs3M-51" value="companyName&lt;br&gt;departName&lt;br&gt;numOfApply&lt;br&gt;endDate" style="text;html=1;strokeColor=none;fillColor=none;align=left;verticalAlign=middle;spacingLeft=4;spacingRight=4;overflow=hidden;rotatable=0;points=[[0,0.5],[1,0.5]];portConstraint=eastwest;whiteSpace=wrap;" vertex="1" parent="R6v5QdrumkMnJ_XkAs3M-50">
          <mxGeometry y="40" width="160" height="60" as="geometry" />
        </mxCell>
        <mxCell id="R6v5QdrumkMnJ_XkAs3M-52" value="" style="line;strokeWidth=1;fillColor=none;align=left;verticalAlign=middle;spacingTop=-1;spacingLeft=3;spacingRight=3;rotatable=0;labelPosition=right;points=[];portConstraint=eastwest;" vertex="1" parent="R6v5QdrumkMnJ_XkAs3M-50">
          <mxGeometry y="100" width="160" height="8" as="geometry" />
        </mxCell>
        <mxCell id="R6v5QdrumkMnJ_XkAs3M-53" value="getRecruitCount()" style="text;html=1;strokeColor=none;fillColor=none;align=left;verticalAlign=middle;spacingLeft=4;spacingRight=4;overflow=hidden;rotatable=0;points=[[0,0.5],[1,0.5]];portConstraint=eastwest;whiteSpace=wrap;" vertex="1" parent="R6v5QdrumkMnJ_XkAs3M-50">
          <mxGeometry y="108" width="160" height="52" as="geometry" />
        </mxCell>
        <mxCell id="R6v5QdrumkMnJ_XkAs3M-54" value="&amp;lt;&amp;lt;entity&amp;gt;&amp;gt;&lt;br&gt;&lt;b&gt;ApplyInfo&lt;/b&gt;" style="swimlane;fontStyle=0;align=center;verticalAlign=top;childLayout=stackLayout;horizontal=1;startSize=40;horizontalStack=0;resizeParent=1;resizeParentMax=0;resizeLast=0;collapsible=0;marginBottom=0;html=1;whiteSpace=wrap;" vertex="1" parent="WIyWlLk6GJQsqaUBKTNV-1">
          <mxGeometry x="570" y="1130.0000000000002" width="160" height="160" as="geometry" />
        </mxCell>
        <mxCell id="R6v5QdrumkMnJ_XkAs3M-55" value="companyName&lt;br&gt;departName&lt;br&gt;headCount&lt;br&gt;endDate" style="text;html=1;strokeColor=none;fillColor=none;align=left;verticalAlign=middle;spacingLeft=4;spacingRight=4;overflow=hidden;rotatable=0;points=[[0,0.5],[1,0.5]];portConstraint=eastwest;whiteSpace=wrap;" vertex="1" parent="R6v5QdrumkMnJ_XkAs3M-54">
          <mxGeometry y="40" width="160" height="60" as="geometry" />
        </mxCell>
        <mxCell id="R6v5QdrumkMnJ_XkAs3M-56" value="" style="line;strokeWidth=1;fillColor=none;align=left;verticalAlign=middle;spacingTop=-1;spacingLeft=3;spacingRight=3;rotatable=0;labelPosition=right;points=[];portConstraint=eastwest;" vertex="1" parent="R6v5QdrumkMnJ_XkAs3M-54">
          <mxGeometry y="100" width="160" height="8" as="geometry" />
        </mxCell>
        <mxCell id="R6v5QdrumkMnJ_XkAs3M-57" value="showInfo()&lt;br&gt;~ApplyInfo()&lt;br&gt;getDepart()" style="text;html=1;strokeColor=none;fillColor=none;align=left;verticalAlign=middle;spacingLeft=4;spacingRight=4;overflow=hidden;rotatable=0;points=[[0,0.5],[1,0.5]];portConstraint=eastwest;whiteSpace=wrap;" vertex="1" parent="R6v5QdrumkMnJ_XkAs3M-54">
          <mxGeometry y="108" width="160" height="52" as="geometry" />
        </mxCell>
        <mxCell id="R6v5QdrumkMnJ_XkAs3M-58" value="1&lt;br&gt;&lt;br&gt;&lt;br&gt;&lt;br&gt;&lt;br&gt;&amp;nbsp;&lt;br&gt;&amp;nbsp;0..*" style="endArrow=diamondThin;endFill=0;endSize=24;html=1;rounded=0;entryX=0.426;entryY=1.052;entryDx=0;entryDy=0;entryPerimeter=0;exitX=0.5;exitY=0;exitDx=0;exitDy=0;" edge="1" parent="WIyWlLk6GJQsqaUBKTNV-1" source="R6v5QdrumkMnJ_XkAs3M-50" target="R6v5QdrumkMnJ_XkAs3M-47">
          <mxGeometry x="-0.153" y="-21" width="160" relative="1" as="geometry">
            <mxPoint x="1060" y="861.0000000000002" as="sourcePoint" />
            <mxPoint x="820" y="1220.0000000000002" as="targetPoint" />
            <mxPoint as="offset" />
          </mxGeometry>
        </mxCell>
        <mxCell id="R6v5QdrumkMnJ_XkAs3M-59" value="&lt;span style=&quot;font-size: 15px;&quot;&gt;1&lt;br&gt;&lt;br&gt;&lt;br&gt;&lt;br&gt;0..*&lt;br&gt;&lt;/span&gt;" style="endArrow=diamondThin;endFill=0;endSize=24;html=1;rounded=0;entryX=0.5;entryY=1;entryDx=0;entryDy=0;entryPerimeter=0;exitX=0.563;exitY=0;exitDx=0;exitDy=0;exitPerimeter=0;" edge="1" parent="WIyWlLk6GJQsqaUBKTNV-1" source="R6v5QdrumkMnJ_XkAs3M-54" target="R6v5QdrumkMnJ_XkAs3M-44">
          <mxGeometry x="0.0003" y="20" width="160" relative="1" as="geometry">
            <mxPoint x="650" y="1130.0000000000002" as="sourcePoint" />
            <mxPoint x="580" y="867.6300000000003" as="targetPoint" />
            <mxPoint as="offset" />
          </mxGeometry>
        </mxCell>
        <mxCell id="R6v5QdrumkMnJ_XkAs3M-60" value="" style="ellipse;whiteSpace=wrap;html=1;" vertex="1" parent="WIyWlLk6GJQsqaUBKTNV-1">
          <mxGeometry x="720" y="670" width="80" height="80" as="geometry" />
        </mxCell>
      </root>
    </mxGraphModel>
  </diagram>
</mxfile>
